<svg fill="#000000" xmlns="http://www.w3.org/2000/svg"  viewBox="0 0 32 32" width="24px" height="24px"><path d="M 9 7 C 6.25 7 4 9.25 4 12 L 4 25 L 16 25 L 16 29 L 18 29 L 18 25 L 28 25 L 28 12 C 28 9.25 25.75 7 23 7 Z M 9 9 C 10.667969 9 12 10.332031 12 12 L 12 23 L 6 23 L 6 12 C 6 10.332031 7.332031 9 9 9 Z M 12.96875 9 L 23 9 C 24.667969 9 26 10.332031 26 12 L 26 23 L 14 23 L 14 12 C 14 10.867188 13.609375 9.839844 12.96875 9 Z M 17 11 L 17 13 L 22 13 L 22 15 L 24 15 L 24 11 Z M 7 13 L 7 15 L 11 15 L 11 13 Z"/></svg>