<?xml version="1.0" encoding="UTF-8"?>
<svg width="18px" height="21px" viewBox="0 0 18 21" version="1.1" xmlns="http://www.w3.org/2000/svg" xmlns:xlink="http://www.w3.org/1999/xlink">
    <!-- Generator: Sketch 53.2 (72643) - https://sketchapp.com -->
    <title>i_gnb_airplane</title>
    <desc>Created with Sketch.</desc>
    <g id="Page-1" stroke="none" stroke-width="1" fill="none" fill-rule="evenodd">
        <g id="아이템-발굴" transform="translate(-53.000000, -485.000000)">
            <g id="i_gnb_airplane" transform="translate(50.000000, 483.000000)">
                <rect id="Rectangle" x="0" y="0" width="24" height="24"></rect>
                <rect id="Rectangle" x="0" y="0" width="24" height="24"></rect>
                <path d="M12,2.88733684 C9.35317959,4.65232722 7.75,7.62961624 7.75,10.8309519 L7.75,18 C7.75,18.1380712 7.86192881,18.25 8,18.25 L16,18.25 C16.1380712,18.25 16.25,18.1380712 16.25,18 L16.25,10.8309519 C16.25,7.62961624 14.6468204,4.65232722 12,2.88733684 Z" id="Rectangle" stroke="#636772" stroke-width="1.5"></path>
                <path d="M12,18.3308283 C11.1147348,18.804325 10.4677242,19.634432 10.2288153,20.6181745 L10.0289861,21.4410007 C10.0242951,21.4603165 10.0219245,21.4801228 10.0219245,21.5 C10.0219245,21.6380712 10.1338533,21.75 10.2719245,21.75 L13.7280755,21.75 C13.7479528,21.75 13.7677591,21.7476294 13.7870748,21.7429384 C13.921246,21.710354 14.0035984,21.5751719 13.9710139,21.4410007 L13.7711847,20.6181745 C13.5322758,19.634432 12.8852652,18.804325 12,18.3308283 Z" id="Rectangle" stroke="#636772" stroke-width="1.5" transform="translate(12.000116, 20.000000) scale(1, -1) translate(-12.000116, -20.000000) "></path>
                <circle id="Oval" stroke="#636772" stroke-width="1.5" cx="12" cy="10.25" r="1.5"></circle>
                <path d="M7.5,18.3793729 L7.5,13.2324467 C7.5,13.2151398 7.49820284,13.1978798 7.49463745,13.1809441 C7.46619333,13.0458346 7.33360691,12.9593652 7.19849738,12.9878093 L5.12997713,13.4232872 C4.5840766,13.5382137 4.18041323,14.0009665 4.14066686,14.5574156 L3.84072706,18.7565727 C3.83918401,18.7781755 3.84045466,18.7998872 3.8445071,18.8211625 C3.87034189,18.9567952 4.00123711,19.0458039 4.13686977,19.0199692 L7.5,18.3793729 Z" id="Rectangle" stroke="#636772" stroke-width="1.5"></path>
                <path d="M16.5,18.3793729 L19.8631302,19.0199692 C19.8844055,19.0240216 19.9061172,19.0252922 19.92772,19.0237492 C20.0654403,19.013912 20.1691101,18.8942931 20.1592729,18.7565727 L19.8593331,14.5574156 C19.8195868,14.0009665 19.4159234,13.5382137 18.8700229,13.4232872 L16.8015026,12.9878093 C16.784567,12.9842439 16.7673069,12.9824467 16.75,12.9824467 C16.6119288,12.9824467 16.5,13.0943755 16.5,13.2324467 L16.5,18.3793729 Z" id="Rectangle" stroke="#636772" stroke-width="1.5"></path>
            </g>
        </g>
    </g>
</svg>