<?xml version="1.0" encoding="UTF-8"?>
<svg width="24px" height="24px" viewBox="0 0 24 24" version="1.1" xmlns="http://www.w3.org/2000/svg" xmlns:xlink="http://www.w3.org/1999/xlink">
    <!-- Generator: Sketch 53.2 (72643) - https://sketchapp.com -->
    <title>i_gnb_note</title>
    <desc>Created with Sketch.</desc>
    <g id="i_gnb_note" stroke="none" stroke-width="1" fill="none" fill-rule="evenodd">
        <g>
            <rect id="Rectangle" x="0" y="0" width="24" height="24"></rect>
            <rect id="Rectangle" x="0" y="0" width="24" height="24"></rect>
            <path d="M5,4.75 C4.86192881,4.75 4.75,4.86192881 4.75,5 L4.75,20 C4.75,20.1380712 4.86192881,20.25 5,20.25 L19,20.25 C19.1380712,20.25 19.25,20.1380712 19.25,20 L19.25,5 C19.25,4.86192881 19.1380712,4.75 19,4.75 L5,4.75 Z" id="Rectangle" stroke="#636772" stroke-width="1.5"></path>
            <path d="M8.75,3 C9.16421356,3 9.5,3.33578644 9.5,3.75 L9.5,5.75 C9.5,6.16421356 9.16421356,6.5 8.75,6.5 C8.33578644,6.5 8,6.16421356 8,5.75 L8,3.75 C8,3.33578644 8.33578644,3 8.75,3 Z M12,3 C12.4142136,3 12.75,3.33578644 12.75,3.75 L12.75,5.75 C12.75,6.16421356 12.4142136,6.5 12,6.5 C11.5857864,6.5 11.25,6.16421356 11.25,5.75 L11.25,3.75 C11.25,3.33578644 11.5857864,3 12,3 Z M15.25,3 C15.6642136,3 16,3.33578644 16,3.75 L16,5.75 C16,6.16421356 15.6642136,6.5 15.25,6.5 C14.8357864,6.5 14.5,6.16421356 14.5,5.75 L14.5,3.75 C14.5,3.33578644 14.8357864,3 15.25,3 Z" id="Combined-Shape" fill="#636772"></path>
            <path d="M8.25,9 L13.25,9 C13.6642136,9 14,9.33578644 14,9.75 C14,10.1642136 13.6642136,10.5 13.25,10.5 L8.25,10.5 C7.83578644,10.5 7.5,10.1642136 7.5,9.75 C7.5,9.33578644 7.83578644,9 8.25,9 Z M8.25,12.25 L15.75,12.25 C16.1642136,12.25 16.5,12.5857864 16.5,13 C16.5,13.4142136 16.1642136,13.75 15.75,13.75 L8.25,13.75 C7.83578644,13.75 7.5,13.4142136 7.5,13 C7.5,12.5857864 7.83578644,12.25 8.25,12.25 Z M8.25,15.25 L11.75,15.25 C12.1642136,15.25 12.5,15.5857864 12.5,16 C12.5,16.4142136 12.1642136,16.75 11.75,16.75 L8.25,16.75 C7.83578644,16.75 7.5,16.4142136 7.5,16 C7.5,15.5857864 7.83578644,15.25 8.25,15.25 Z" id="Combined-Shape" fill="#636772"></path>
        </g>
    </g>
</svg>