<svg width="225" height="38" viewBox="0 0 225 38" fill="none" xmlns="http://www.w3.org/2000/svg">
<path d="M8.51202 35C8.51202 35.9428 8.51202 36.4142 8.21912 36.7071C7.92623 37 7.45482 37 6.51202 37H3.36001C2.4172 37 1.9458 37 1.65291 36.7071C1.36001 36.4142 1.36001 35.9428 1.36001 35V13.752C1.36001 12.8092 1.36001 12.3378 1.65291 12.0449C1.9458 11.752 2.41721 11.752 3.36001 11.752H6.51202C7.45482 11.752 7.92623 11.752 8.21912 12.0449C8.51202 12.3378 8.51202 12.8092 8.51202 13.752V35ZM9.18401 4.45599C9.18401 5.76799 8.75201 6.80799 7.88801 7.57599C7.05601 8.31199 6.06401 8.67999 4.91201 8.67999C3.76001 8.67999 2.75201 8.31199 1.88801 7.57599C1.05601 6.80799 0.640015 5.76799 0.640015 4.45599C0.640015 3.14399 1.05601 2.11999 1.88801 1.38399C2.75201 0.615994 3.76001 0.231995 4.91201 0.231995C6.06401 0.231995 7.05601 0.615994 7.88801 1.38399C8.75201 2.11999 9.18401 3.14399 9.18401 4.45599Z" fill="#001C34"/>
<path d="M14.995 7.16763C14.995 6.3543 14.995 5.94764 15.2338 5.66736C15.4725 5.38709 15.874 5.32242 16.677 5.19308L19.829 4.68537C20.9056 4.51195 21.4439 4.42524 21.7955 4.7247C22.147 5.02416 22.147 5.56941 22.147 6.65992V9.752C22.147 10.6948 22.147 11.1662 22.4399 11.4591C22.7328 11.752 23.2042 11.752 24.147 11.752H28.739C29.6818 11.752 30.1532 11.752 30.4461 12.0449C30.739 12.3378 30.739 12.8092 30.739 13.752V15.704C30.739 16.6468 30.739 17.1182 30.4461 17.4111C30.1532 17.704 29.6818 17.704 28.739 17.704H24.147C23.2042 17.704 22.7328 17.704 22.4399 17.9969C22.147 18.2898 22.147 18.7612 22.147 19.704V26.584C22.147 28.088 22.403 29.288 22.915 30.184C23.459 31.08 24.531 31.528 26.131 31.528C26.899 31.528 27.683 31.464 28.483 31.336C29.6043 31.1204 30.165 31.0125 30.498 31.2204C30.5248 31.2372 30.5431 31.2497 30.5684 31.2687C30.8824 31.5043 30.9738 32.0089 31.1565 33.0181L31.458 34.6836C31.5986 35.4602 31.6689 35.8486 31.4716 36.1729C31.2742 36.4972 30.9223 36.6055 30.2185 36.8221C29.787 36.9549 29.3365 37.0782 28.867 37.192C27.811 37.448 26.515 37.576 24.979 37.576C23.027 37.576 21.411 37.32 20.131 36.808C18.851 36.264 17.827 35.528 17.059 34.6C16.291 33.64 15.747 32.488 15.427 31.144C15.139 29.8 14.995 28.312 14.995 26.68V7.16763Z" fill="#001C34"/>
<path d="M34.4256 24.568C34.4256 22.328 34.7616 20.376 35.4336 18.712C36.1376 17.016 37.0496 15.608 38.1696 14.488C39.2896 13.368 40.5696 12.52 42.0096 11.944C43.4816 11.368 44.9856 11.08 46.5216 11.08C50.1056 11.08 52.9376 12.184 55.0176 14.392C57.0976 16.568 58.1376 19.784 58.1376 24.04C58.1376 24.456 58.1216 24.92 58.0896 25.432C58.0666 25.7777 58.0551 25.9505 57.9976 26.0959C57.8886 26.3712 57.6549 26.5899 57.3729 26.6803C57.224 26.728 57.0474 26.728 56.6941 26.728H43.9988C42.9182 26.728 42.3779 26.728 42.0926 27.2446C41.8073 27.7613 42.03 28.1149 42.4752 28.8222C42.8128 29.3584 43.2656 29.8284 43.8336 30.232C45.0496 31.096 46.6816 31.528 48.7296 31.528C50.0416 31.528 51.3216 31.416 52.5696 31.192C52.799 31.1461 53.0207 31.0987 53.2346 31.0498C54.4834 30.764 55.1078 30.6211 55.4667 30.862C55.8256 31.1028 55.9204 31.676 56.1098 32.8222L56.4091 34.6327C56.5259 35.3395 56.5843 35.6929 56.3876 36.0116C56.1909 36.3303 55.8852 36.4253 55.2737 36.6152C55.2213 36.6314 55.1679 36.6477 55.1136 36.664C54.4736 36.856 53.7536 37.016 52.9536 37.144C52.1856 37.304 51.3536 37.432 50.4576 37.528C49.5616 37.624 48.6656 37.672 47.7696 37.672C45.4976 37.672 43.5136 37.336 41.8176 36.664C40.1536 35.992 38.7616 35.08 37.6416 33.928C36.5536 32.744 35.7376 31.352 35.1936 29.752C34.6816 28.152 34.4256 26.424 34.4256 24.568ZM49.4126 21.832C50.1034 21.832 50.4487 21.832 50.7241 21.6087C50.8423 21.5129 50.9767 21.3263 51.0302 21.1839C51.155 20.8521 51.0666 20.5867 50.8896 20.056C50.7296 19.48 50.4576 18.968 50.0736 18.52C49.7216 18.072 49.2576 17.704 48.6816 17.416C48.1376 17.128 47.4496 16.984 46.6176 16.984C45.8176 16.984 45.1296 17.128 44.5536 17.416C43.9776 17.672 43.4976 18.024 43.1136 18.472C42.7296 18.92 42.4256 19.448 42.2016 20.056C42.0419 20.5353 41.962 20.7749 42.0194 21.042C42.0728 21.2906 42.2697 21.5638 42.4887 21.6931C42.7239 21.832 43.0158 21.832 43.5995 21.832H49.4126Z" fill="#001C34"/>
<path d="M77.5289 23.608C77.5289 21.304 77.2249 19.672 76.6169 18.712C76.0409 17.752 75.0329 17.272 73.5929 17.272C73.1449 17.272 72.6809 17.304 72.2009 17.368C71.7388 17.3988 71.5078 17.4142 71.3048 17.5327C71.145 17.626 70.9961 17.7852 70.9136 17.9508C70.8089 18.1613 70.8089 18.4114 70.8089 18.9118V35C70.8089 35.9428 70.8089 36.4142 70.516 36.7071C70.2231 37 69.7517 37 68.8089 37H65.6569C64.7141 37 64.2427 37 63.9498 36.7071C63.6569 36.4142 63.6569 35.9428 63.6569 35V14.1578C63.6569 13.4111 63.6569 13.0378 63.8795 12.7627C64.102 12.4876 64.4538 12.4125 65.1573 12.2623C65.3545 12.2202 65.5584 12.1781 65.7689 12.136C66.6009 11.944 67.4649 11.784 68.3609 11.656C69.2889 11.496 70.2329 11.384 71.1929 11.32C72.1529 11.224 73.0969 11.176 74.0249 11.176C75.8489 11.176 77.3209 11.416 78.4409 11.896C79.0032 12.1147 79.516 12.3562 79.9792 12.6207C80.701 13.0328 81.062 13.2388 81.3185 13.243C81.575 13.2472 81.9227 13.0636 82.6182 12.6965C83.2883 12.3427 84.0078 12.0438 84.7769 11.8C86.1209 11.384 87.3529 11.176 88.4729 11.176C90.4889 11.176 92.1369 11.464 93.4169 12.04C94.7289 12.584 95.7689 13.368 96.5369 14.392C97.3049 15.416 97.8329 16.632 98.1209 18.04C98.4089 19.448 98.5529 21.016 98.5529 22.744V35C98.5529 35.9428 98.5529 36.4142 98.26 36.7071C97.9671 37 97.4957 37 96.5529 37H93.4009C92.4581 37 91.9867 37 91.6938 36.7071C91.4009 36.4142 91.4009 35.9428 91.4009 35V23.608C91.4009 21.304 91.0969 19.672 90.4889 18.712C89.9129 17.752 88.9049 17.272 87.4649 17.272C87.0809 17.272 86.5369 17.368 85.8329 17.56C85.7275 17.5901 85.6249 17.6214 85.525 17.6538C84.9665 17.8354 84.6873 17.9262 84.4945 18.2387C84.3018 18.5513 84.3628 18.9522 84.485 19.7541C84.5286 20.0405 84.5619 20.3332 84.5849 20.632C84.6489 21.432 84.6809 22.296 84.6809 23.224V35C84.6809 35.9428 84.6809 36.4142 84.388 36.7071C84.0951 37 83.6237 37 82.6809 37H79.5289C78.5861 37 78.1147 37 77.8218 36.7071C77.5289 36.4142 77.5289 35.9428 77.5289 35V23.608Z" fill="#001C34"/>
<path d="M112.296 31.864C113.608 31.864 114.536 31.736 115.08 31.48C115.624 31.224 115.896 30.728 115.896 29.992C115.896 29.416 115.544 28.92 114.84 28.504C114.136 28.056 113.064 27.56 111.624 27.016C110.504 26.6 109.48 26.168 108.552 25.72C107.656 25.272 106.888 24.744 106.248 24.136C105.608 23.496 105.112 22.744 104.76 21.88C104.408 21.016 104.232 19.976 104.232 18.76C104.232 16.392 105.112 14.52 106.872 13.144C108.632 11.768 111.048 11.08 114.12 11.08C115.656 11.08 117.128 11.224 118.536 11.512C119.163 11.626 119.733 11.7464 120.245 11.8731C120.99 12.057 121.362 12.1489 121.576 12.4958C121.791 12.8426 121.7 13.2486 121.518 14.0604L121.137 15.759C120.912 16.762 120.8 17.2634 120.442 17.4847C120.085 17.706 119.556 17.5756 118.499 17.3148C118.307 17.2672 118.111 17.221 117.912 17.176C116.952 16.952 115.864 16.84 114.648 16.84C112.408 16.84 111.288 17.464 111.288 18.712C111.288 19 111.336 19.256 111.432 19.48C111.528 19.704 111.72 19.928 112.008 20.152C112.296 20.344 112.68 20.568 113.16 20.824C113.672 21.048 114.312 21.304 115.08 21.592C116.648 22.168 117.944 22.744 118.968 23.32C119.992 23.864 120.792 24.472 121.368 25.144C121.976 25.784 122.392 26.504 122.616 27.304C122.872 28.104 123 29.032 123 30.088C123 32.584 122.056 34.472 120.168 35.752C118.312 37.032 115.672 37.672 112.248 37.672C110.008 37.672 108.136 37.48 106.632 37.096C106.043 36.9424 105.525 36.799 105.08 36.6658C104.394 36.4608 104.051 36.3582 103.851 36.0242C103.652 35.6902 103.73 35.3128 103.886 34.5581L104.278 32.6567C104.497 31.5979 104.607 31.0686 104.981 30.8428C105.356 30.617 105.907 30.7766 107.009 31.0959C107.502 31.2388 108 31.3668 108.504 31.48C109.784 31.736 111.048 31.864 112.296 31.864Z" fill="#001C34"/>
<path d="M127.144 24.376C127.144 22.552 127.432 20.84 128.008 19.24C128.616 17.608 129.48 16.2 130.6 15.016C131.72 13.8 133.08 12.84 134.68 12.136C136.28 11.432 138.104 11.08 140.152 11.08C141.496 11.08 142.728 11.208 143.848 11.464C144.404 11.5751 144.951 11.7137 145.491 11.8799C146.233 12.1083 146.604 12.2225 146.799 12.5731C146.995 12.9237 146.889 13.3301 146.677 14.143L146.187 16.0249C145.93 17.0096 145.802 17.5019 145.45 17.712C145.099 17.922 144.563 17.7915 143.493 17.5304C143.467 17.5243 143.442 17.5181 143.416 17.512C142.616 17.32 141.72 17.224 140.728 17.224C138.616 17.224 137.032 17.88 135.976 19.192C134.952 20.504 134.44 22.232 134.44 24.376C134.44 26.648 134.92 28.408 135.88 29.656C136.872 30.904 138.584 31.528 141.016 31.528C141.88 31.528 142.808 31.448 143.8 31.288C143.909 31.2705 144.016 31.2519 144.122 31.2322C145.371 31.0003 145.995 30.8844 146.338 31.1233C146.681 31.3623 146.776 31.9099 146.964 33.0053L147.275 34.8128C147.406 35.5745 147.472 35.9554 147.268 36.2796C147.065 36.6038 146.725 36.7009 146.047 36.8951C145.552 37.0367 145.011 37.1676 144.424 37.288C143.176 37.544 141.8 37.672 140.296 37.672C137.992 37.672 136.008 37.336 134.344 36.664C132.68 35.96 131.304 35.016 130.216 33.832C129.16 32.648 128.376 31.256 127.864 29.656C127.384 28.024 127.144 26.264 127.144 24.376Z" fill="#001C34"/>
<path d="M174.742 24.328C174.742 26.312 174.454 28.136 173.878 29.8C173.302 31.432 172.47 32.84 171.382 34.024C170.294 35.176 168.982 36.072 167.446 36.712C165.942 37.352 164.246 37.672 162.358 37.672C160.502 37.672 158.806 37.352 157.27 36.712C155.766 36.072 154.47 35.176 153.382 34.024C152.294 32.84 151.446 31.432 150.838 29.8C150.23 28.136 149.926 26.312 149.926 24.328C149.926 22.344 150.23 20.536 150.838 18.904C151.478 17.272 152.342 15.88 153.43 14.728C154.55 13.576 155.862 12.68 157.366 12.04C158.902 11.4 160.566 11.08 162.358 11.08C164.182 11.08 165.846 11.4 167.35 12.04C168.886 12.68 170.198 13.576 171.286 14.728C172.374 15.88 173.222 17.272 173.83 18.904C174.438 20.536 174.742 22.344 174.742 24.328ZM167.446 24.328C167.446 22.12 166.998 20.392 166.102 19.144C165.238 17.864 163.99 17.224 162.358 17.224C160.726 17.224 159.462 17.864 158.566 19.144C157.67 20.392 157.222 22.12 157.222 24.328C157.222 26.536 157.67 28.296 158.566 29.608C159.462 30.888 160.726 31.528 162.358 31.528C163.99 31.528 165.238 30.888 166.102 29.608C166.998 28.296 167.446 26.536 167.446 24.328Z" fill="#001C34"/>
<path d="M201.834 34.6328C201.834 35.3639 201.834 35.7295 201.614 36.0035C201.395 36.2776 201.056 36.3535 200.377 36.5052C199.438 36.7152 198.356 36.9121 197.13 37.096C195.21 37.416 193.194 37.576 191.082 37.576C188.938 37.576 187.146 37.288 185.706 36.712C184.298 36.136 183.178 35.336 182.346 34.312C181.514 33.256 180.922 32.008 180.57 30.568C180.218 29.128 180.042 27.544 180.042 25.816V13.752C180.042 12.8092 180.042 12.3378 180.335 12.0449C180.628 11.752 181.099 11.752 182.042 11.752H185.194C186.137 11.752 186.608 11.752 186.901 12.0449C187.194 12.3378 187.194 12.8092 187.194 13.752V24.952C187.194 27.256 187.498 28.92 188.106 29.944C188.714 30.968 189.85 31.48 191.514 31.48C192.026 31.48 192.57 31.464 193.146 31.432C193.772 31.3624 194.085 31.3276 194.314 31.1415C194.393 31.0767 194.466 30.9947 194.522 30.9084C194.682 30.6609 194.682 30.3379 194.682 29.692V13.752C194.682 12.8092 194.682 12.3378 194.975 12.0449C195.268 11.752 195.739 11.752 196.682 11.752H199.834C200.777 11.752 201.248 11.752 201.541 12.0449C201.834 12.3378 201.834 12.8092 201.834 13.752V34.6328Z" fill="#001C34"/>
<path d="M208.308 7.16763C208.308 6.3543 208.308 5.94764 208.546 5.66736C208.785 5.38709 209.186 5.32242 209.989 5.19308L213.141 4.68537C214.218 4.51195 214.756 4.42524 215.108 4.7247C215.46 5.02416 215.46 5.56941 215.46 6.65992V9.752C215.46 10.6948 215.46 11.1662 215.752 11.4591C216.045 11.752 216.517 11.752 217.46 11.752H222.052C222.994 11.752 223.466 11.752 223.759 12.0449C224.052 12.3378 224.052 12.8092 224.052 13.752V15.704C224.052 16.6468 224.052 17.1182 223.759 17.4111C223.466 17.704 222.994 17.704 222.052 17.704H217.46C216.517 17.704 216.045 17.704 215.752 17.9969C215.46 18.2898 215.46 18.7612 215.46 19.704V26.584C215.46 28.088 215.716 29.288 216.228 30.184C216.772 31.08 217.844 31.528 219.444 31.528C220.212 31.528 220.996 31.464 221.796 31.336C222.917 31.1204 223.477 31.0125 223.81 31.2204C223.837 31.2372 223.856 31.2497 223.881 31.2687C224.195 31.5043 224.286 32.0089 224.469 33.0181L224.771 34.6836C224.911 35.4602 224.981 35.8486 224.784 36.1729C224.587 36.4972 224.235 36.6055 223.531 36.8221C223.1 36.9549 222.649 37.0782 222.18 37.192C221.124 37.448 219.828 37.576 218.292 37.576C216.34 37.576 214.724 37.32 213.444 36.808C212.164 36.264 211.14 35.528 210.372 34.6C209.604 33.64 209.06 32.488 208.74 31.144C208.452 29.8 208.308 28.312 208.308 26.68V7.16763Z" fill="#001C34"/>
</svg>
