<svg width="315" height="56" viewBox="0 0 315 56" fill="none" xmlns="http://www.w3.org/2000/svg">
<path d="M97.512 44C97.512 44.9428 97.512 45.4142 97.2191 45.7071C96.9262 46 96.4548 46 95.512 46H92.36C91.4172 46 90.9458 46 90.6529 45.7071C90.36 45.4142 90.36 44.9428 90.36 44V22.752C90.36 21.8092 90.36 21.3378 90.6529 21.0449C90.9458 20.752 91.4172 20.752 92.36 20.752H95.512C96.4548 20.752 96.9262 20.752 97.2191 21.0449C97.512 21.3378 97.512 21.8092 97.512 22.752V44ZM98.184 13.456C98.184 14.768 97.752 15.808 96.888 16.576C96.056 17.312 95.064 17.68 93.912 17.68C92.76 17.68 91.752 17.312 90.888 16.576C90.056 15.808 89.64 14.768 89.64 13.456C89.64 12.144 90.056 11.12 90.888 10.384C91.752 9.61599 92.76 9.23199 93.912 9.23199C95.064 9.23199 96.056 9.61599 96.888 10.384C97.752 11.12 98.184 12.144 98.184 13.456Z" fill="#001C34"/>
<path d="M103.995 16.1676C103.995 15.3543 103.995 14.9476 104.234 14.6674C104.473 14.3871 104.874 14.3224 105.677 14.1931L108.829 13.6854C109.906 13.512 110.444 13.4252 110.795 13.7247C111.147 14.0242 111.147 14.5694 111.147 15.6599V18.752C111.147 19.6948 111.147 20.1662 111.44 20.4591C111.733 20.752 112.204 20.752 113.147 20.752H117.739C118.682 20.752 119.153 20.752 119.446 21.0449C119.739 21.3378 119.739 21.8092 119.739 22.752V24.704C119.739 25.6468 119.739 26.1182 119.446 26.4111C119.153 26.704 118.682 26.704 117.739 26.704H113.147C112.204 26.704 111.733 26.704 111.44 26.9969C111.147 27.2898 111.147 27.7612 111.147 28.704V35.584C111.147 37.088 111.403 38.288 111.915 39.184C112.459 40.08 113.531 40.528 115.131 40.528C115.899 40.528 116.683 40.464 117.483 40.336C118.604 40.1204 119.165 40.0125 119.498 40.2204C119.525 40.2372 119.543 40.2497 119.568 40.2687C119.882 40.5043 119.974 41.0089 120.157 42.0181L120.458 43.6836C120.599 44.4602 120.669 44.8486 120.472 45.1729C120.274 45.4972 119.922 45.6055 119.219 45.8221C118.787 45.9549 118.337 46.0782 117.867 46.192C116.811 46.448 115.515 46.576 113.979 46.576C112.027 46.576 110.411 46.32 109.131 45.808C107.851 45.264 106.827 44.528 106.059 43.6C105.291 42.64 104.747 41.488 104.427 40.144C104.139 38.8 103.995 37.312 103.995 35.68V16.1676Z" fill="#001C34"/>
<path d="M123.426 33.568C123.426 31.328 123.762 29.376 124.434 27.712C125.138 26.016 126.05 24.608 127.17 23.488C128.29 22.368 129.57 21.52 131.01 20.944C132.482 20.368 133.986 20.08 135.522 20.08C139.106 20.08 141.938 21.184 144.018 23.392C146.098 25.568 147.138 28.784 147.138 33.04C147.138 33.456 147.122 33.92 147.09 34.432C147.067 34.7777 147.055 34.9505 146.998 35.0959C146.889 35.3712 146.655 35.5899 146.373 35.6803C146.224 35.728 146.047 35.728 145.694 35.728H132.999C131.918 35.728 131.378 35.728 131.093 36.2446C130.807 36.7613 131.03 37.1149 131.475 37.8222C131.813 38.3584 132.266 38.8284 132.834 39.232C134.05 40.096 135.682 40.528 137.73 40.528C139.042 40.528 140.322 40.416 141.57 40.192C141.799 40.1461 142.021 40.0987 142.235 40.0498C143.483 39.764 144.108 39.6211 144.467 39.862C144.826 40.1028 144.92 40.676 145.11 41.8222L145.409 43.6327C145.526 44.3395 145.584 44.6929 145.388 45.0116C145.191 45.3303 144.885 45.4253 144.274 45.6152C144.221 45.6314 144.168 45.6477 144.114 45.664C143.474 45.856 142.754 46.016 141.954 46.144C141.186 46.304 140.354 46.432 139.458 46.528C138.562 46.624 137.666 46.672 136.77 46.672C134.498 46.672 132.514 46.336 130.818 45.664C129.154 44.992 127.762 44.08 126.642 42.928C125.554 41.744 124.738 40.352 124.194 38.752C123.682 37.152 123.426 35.424 123.426 33.568ZM138.413 30.832C139.103 30.832 139.449 30.832 139.724 30.6087C139.842 30.5129 139.977 30.3263 140.03 30.1839C140.155 29.8521 140.067 29.5867 139.89 29.056C139.73 28.48 139.458 27.968 139.074 27.52C138.722 27.072 138.258 26.704 137.682 26.416C137.138 26.128 136.45 25.984 135.618 25.984C134.818 25.984 134.13 26.128 133.554 26.416C132.978 26.672 132.498 27.024 132.114 27.472C131.73 27.92 131.426 28.448 131.202 29.056C131.042 29.5353 130.962 29.7749 131.019 30.042C131.073 30.2906 131.27 30.5638 131.489 30.6931C131.724 30.832 132.016 30.832 132.6 30.832H138.413Z" fill="#001C34"/>
<path d="M166.529 32.608C166.529 30.304 166.225 28.672 165.617 27.712C165.041 26.752 164.033 26.272 162.593 26.272C162.145 26.272 161.681 26.304 161.201 26.368C160.739 26.3988 160.508 26.4142 160.305 26.5327C160.145 26.626 159.996 26.7852 159.914 26.9508C159.809 27.1613 159.809 27.4114 159.809 27.9118V44C159.809 44.9428 159.809 45.4142 159.516 45.7071C159.223 46 158.752 46 157.809 46H154.657C153.714 46 153.243 46 152.95 45.7071C152.657 45.4142 152.657 44.9428 152.657 44V23.1578C152.657 22.4111 152.657 22.0378 152.879 21.7627C153.102 21.4876 153.454 21.4125 154.157 21.2623C154.355 21.2202 154.558 21.1781 154.769 21.136C155.601 20.944 156.465 20.784 157.361 20.656C158.289 20.496 159.233 20.384 160.193 20.32C161.153 20.224 162.097 20.176 163.025 20.176C164.849 20.176 166.321 20.416 167.441 20.896C168.003 21.1147 168.516 21.3562 168.979 21.6207C169.701 22.0328 170.062 22.2388 170.318 22.243C170.575 22.2472 170.923 22.0636 171.618 21.6965C172.288 21.3427 173.008 21.0438 173.777 20.8C175.121 20.384 176.353 20.176 177.473 20.176C179.489 20.176 181.137 20.464 182.417 21.04C183.729 21.584 184.769 22.368 185.537 23.392C186.305 24.416 186.833 25.632 187.121 27.04C187.409 28.448 187.553 30.016 187.553 31.744V44C187.553 44.9428 187.553 45.4142 187.26 45.7071C186.967 46 186.496 46 185.553 46H182.401C181.458 46 180.987 46 180.694 45.7071C180.401 45.4142 180.401 44.9428 180.401 44V32.608C180.401 30.304 180.097 28.672 179.489 27.712C178.913 26.752 177.905 26.272 176.465 26.272C176.081 26.272 175.537 26.368 174.833 26.56C174.728 26.5901 174.625 26.6214 174.525 26.6538C173.967 26.8354 173.687 26.9262 173.495 27.2387C173.302 27.5513 173.363 27.9522 173.485 28.7541C173.529 29.0405 173.562 29.3332 173.585 29.632C173.649 30.432 173.681 31.296 173.681 32.224V44C173.681 44.9428 173.681 45.4142 173.388 45.7071C173.095 46 172.624 46 171.681 46H168.529C167.586 46 167.115 46 166.822 45.7071C166.529 45.4142 166.529 44.9428 166.529 44V32.608Z" fill="#001C34"/>
<path d="M201.296 40.864C202.608 40.864 203.536 40.736 204.08 40.48C204.624 40.224 204.896 39.728 204.896 38.992C204.896 38.416 204.544 37.92 203.84 37.504C203.136 37.056 202.064 36.56 200.624 36.016C199.504 35.6 198.48 35.168 197.552 34.72C196.656 34.272 195.888 33.744 195.248 33.136C194.608 32.496 194.112 31.744 193.76 30.88C193.408 30.016 193.232 28.976 193.232 27.76C193.232 25.392 194.112 23.52 195.872 22.144C197.632 20.768 200.048 20.08 203.12 20.08C204.656 20.08 206.128 20.224 207.536 20.512C208.163 20.626 208.733 20.7464 209.245 20.8731C209.99 21.057 210.362 21.1489 210.576 21.4958C210.791 21.8426 210.7 22.2486 210.518 23.0604L210.137 24.759C209.912 25.762 209.8 26.2634 209.442 26.4847C209.085 26.706 208.556 26.5756 207.499 26.3148C207.307 26.2672 207.111 26.221 206.912 26.176C205.952 25.952 204.864 25.84 203.648 25.84C201.408 25.84 200.288 26.464 200.288 27.712C200.288 28 200.336 28.256 200.432 28.48C200.528 28.704 200.72 28.928 201.008 29.152C201.296 29.344 201.68 29.568 202.16 29.824C202.672 30.048 203.312 30.304 204.08 30.592C205.648 31.168 206.944 31.744 207.968 32.32C208.992 32.864 209.792 33.472 210.368 34.144C210.976 34.784 211.392 35.504 211.616 36.304C211.872 37.104 212 38.032 212 39.088C212 41.584 211.056 43.472 209.168 44.752C207.312 46.032 204.672 46.672 201.248 46.672C199.008 46.672 197.136 46.48 195.632 46.096C195.043 45.9424 194.525 45.799 194.08 45.6658C193.394 45.4608 193.051 45.3582 192.851 45.0242C192.652 44.6902 192.73 44.3128 192.886 43.5581L193.278 41.6567C193.497 40.5979 193.607 40.0686 193.981 39.8428C194.356 39.617 194.907 39.7766 196.009 40.0959C196.502 40.2388 197 40.3668 197.504 40.48C198.784 40.736 200.048 40.864 201.296 40.864Z" fill="#001C34"/>
<path d="M216.144 33.376C216.144 31.552 216.432 29.84 217.008 28.24C217.616 26.608 218.48 25.2 219.6 24.016C220.72 22.8 222.08 21.84 223.68 21.136C225.28 20.432 227.104 20.08 229.152 20.08C230.496 20.08 231.728 20.208 232.848 20.464C233.404 20.5751 233.951 20.7137 234.491 20.8799C235.233 21.1083 235.604 21.2225 235.799 21.5731C235.995 21.9237 235.889 22.3301 235.677 23.143L235.187 25.0249C234.93 26.0096 234.802 26.5019 234.45 26.712C234.099 26.922 233.563 26.7915 232.493 26.5304C232.467 26.5243 232.442 26.5181 232.416 26.512C231.616 26.32 230.72 26.224 229.728 26.224C227.616 26.224 226.032 26.88 224.976 28.192C223.952 29.504 223.44 31.232 223.44 33.376C223.44 35.648 223.92 37.408 224.88 38.656C225.872 39.904 227.584 40.528 230.016 40.528C230.88 40.528 231.808 40.448 232.8 40.288C232.909 40.2705 233.016 40.2519 233.122 40.2322C234.371 40.0003 234.995 39.8844 235.338 40.1233C235.681 40.3623 235.776 40.9099 235.964 42.0053L236.275 43.8128C236.406 44.5745 236.472 44.9554 236.268 45.2796C236.065 45.6038 235.725 45.7009 235.047 45.8951C234.552 46.0367 234.011 46.1676 233.424 46.288C232.176 46.544 230.8 46.672 229.296 46.672C226.992 46.672 225.008 46.336 223.344 45.664C221.68 44.96 220.304 44.016 219.216 42.832C218.16 41.648 217.376 40.256 216.864 38.656C216.384 37.024 216.144 35.264 216.144 33.376Z" fill="#001C34"/>
<path d="M263.742 33.328C263.742 35.312 263.454 37.136 262.878 38.8C262.302 40.432 261.47 41.84 260.382 43.024C259.294 44.176 257.982 45.072 256.446 45.712C254.942 46.352 253.246 46.672 251.358 46.672C249.502 46.672 247.806 46.352 246.27 45.712C244.766 45.072 243.47 44.176 242.382 43.024C241.294 41.84 240.446 40.432 239.838 38.8C239.23 37.136 238.926 35.312 238.926 33.328C238.926 31.344 239.23 29.536 239.838 27.904C240.478 26.272 241.342 24.88 242.43 23.728C243.55 22.576 244.862 21.68 246.366 21.04C247.902 20.4 249.566 20.08 251.358 20.08C253.182 20.08 254.846 20.4 256.35 21.04C257.886 21.68 259.198 22.576 260.286 23.728C261.374 24.88 262.222 26.272 262.83 27.904C263.438 29.536 263.742 31.344 263.742 33.328ZM256.446 33.328C256.446 31.12 255.998 29.392 255.102 28.144C254.238 26.864 252.99 26.224 251.358 26.224C249.726 26.224 248.462 26.864 247.566 28.144C246.67 29.392 246.222 31.12 246.222 33.328C246.222 35.536 246.67 37.296 247.566 38.608C248.462 39.888 249.726 40.528 251.358 40.528C252.99 40.528 254.238 39.888 255.102 38.608C255.998 37.296 256.446 35.536 256.446 33.328Z" fill="#001C34"/>
<path d="M290.834 43.6328C290.834 44.3639 290.834 44.7295 290.614 45.0035C290.395 45.2776 290.056 45.3535 289.377 45.5052C288.438 45.7152 287.356 45.9121 286.13 46.096C284.21 46.416 282.194 46.576 280.082 46.576C277.938 46.576 276.146 46.288 274.706 45.712C273.298 45.136 272.178 44.336 271.346 43.312C270.514 42.256 269.922 41.008 269.57 39.568C269.218 38.128 269.042 36.544 269.042 34.816V22.752C269.042 21.8092 269.042 21.3378 269.335 21.0449C269.628 20.752 270.099 20.752 271.042 20.752H274.194C275.137 20.752 275.608 20.752 275.901 21.0449C276.194 21.3378 276.194 21.8092 276.194 22.752V33.952C276.194 36.256 276.498 37.92 277.106 38.944C277.714 39.968 278.85 40.48 280.514 40.48C281.026 40.48 281.57 40.464 282.146 40.432C282.772 40.3624 283.085 40.3276 283.314 40.1415C283.393 40.0767 283.466 39.9947 283.522 39.9084C283.682 39.6609 283.682 39.3379 283.682 38.692V22.752C283.682 21.8092 283.682 21.3378 283.975 21.0449C284.268 20.752 284.739 20.752 285.682 20.752H288.834C289.777 20.752 290.248 20.752 290.541 21.0449C290.834 21.3378 290.834 21.8092 290.834 22.752V43.6328Z" fill="#001C34"/>
<path d="M297.308 16.1676C297.308 15.3543 297.308 14.9476 297.546 14.6674C297.785 14.3871 298.186 14.3224 298.989 14.1931L302.141 13.6854C303.218 13.512 303.756 13.4252 304.108 13.7247C304.46 14.0242 304.46 14.5694 304.46 15.6599V18.752C304.46 19.6948 304.46 20.1662 304.752 20.4591C305.045 20.752 305.517 20.752 306.46 20.752H311.052C311.994 20.752 312.466 20.752 312.759 21.0449C313.052 21.3378 313.052 21.8092 313.052 22.752V24.704C313.052 25.6468 313.052 26.1182 312.759 26.4111C312.466 26.704 311.994 26.704 311.052 26.704H306.46C305.517 26.704 305.045 26.704 304.752 26.9969C304.46 27.2898 304.46 27.7612 304.46 28.704V35.584C304.46 37.088 304.716 38.288 305.228 39.184C305.772 40.08 306.844 40.528 308.444 40.528C309.212 40.528 309.996 40.464 310.796 40.336C311.917 40.1204 312.477 40.0125 312.81 40.2204C312.837 40.2372 312.856 40.2497 312.881 40.2687C313.195 40.5043 313.286 41.0089 313.469 42.0181L313.771 43.6836C313.911 44.4602 313.981 44.8486 313.784 45.1729C313.587 45.4972 313.235 45.6055 312.531 45.8221C312.1 45.9549 311.649 46.0782 311.18 46.192C310.124 46.448 308.828 46.576 307.292 46.576C305.34 46.576 303.724 46.32 302.444 45.808C301.164 45.264 300.14 44.528 299.372 43.6C298.604 42.64 298.06 41.488 297.74 40.144C297.452 38.8 297.308 37.312 297.308 35.68V16.1676Z" fill="#001C34"/>
<mask id="mask0" mask-type="alpha" maskUnits="userSpaceOnUse" x="0" y="0" width="56" height="56">
<circle cx="28" cy="28" r="28" fill="#001C34"/>
</mask>
<g mask="url(#mask0)">
<rect y="-1.33333" width="57.3333" height="57.3333" fill="#001C34"/>
<rect x="5.45921" y="66.3333" width="57.3333" height="57.3333" rx="6" transform="rotate(-45 5.45921 66.3333)" fill="#268DFF"/>
<rect x="5.45921" y="66.3333" width="57.3333" height="57.3333" rx="6" transform="rotate(-45 5.45921 66.3333)" fill="url(#paint0_linear)" fill-opacity="0.4" style="mix-blend-mode:soft-light"/>
<rect x="-19.5408" y="59.3333" width="57.3333" height="57.3333" rx="6" transform="rotate(-45 -19.5408 59.3333)" fill="#268DFF"/>
<rect x="-19.5408" y="59.3333" width="57.3333" height="57.3333" rx="6" transform="rotate(-45 -19.5408 59.3333)" fill="url(#paint1_linear)" fill-opacity="0.4" style="mix-blend-mode:soft-light"/>
</g>
<defs>
<linearGradient id="paint0_linear" x1="34.1259" y1="66.3333" x2="34.1259" y2="123.667" gradientUnits="userSpaceOnUse">
<stop stop-color="white"/>
<stop offset="0.5625" stop-color="white" stop-opacity="0"/>
</linearGradient>
<linearGradient id="paint1_linear" x1="9.12588" y1="59.3333" x2="9.12588" y2="116.667" gradientUnits="userSpaceOnUse">
<stop stop-color="white"/>
<stop offset="0.5625" stop-color="white" stop-opacity="0"/>
</linearGradient>
</defs>
</svg>
