<svg width="128" height="128" viewBox="0 0 128 128" fill="none" xmlns="http://www.w3.org/2000/svg">
<mask id="mask0" mask-type="alpha" maskUnits="userSpaceOnUse" x="0" y="0" width="128" height="128">
<path d="M0 64C0 33.8301 0 18.7452 9.37258 9.37258C18.7452 0 33.8301 0 64 0C94.1699 0 109.255 0 118.627 9.37258C128 18.7452 128 33.8301 128 64C128 94.1699 128 109.255 118.627 118.627C109.255 128 94.1699 128 64 128C33.8301 128 18.7452 128 9.37258 118.627C0 109.255 0 94.1699 0 64Z" fill="#001C34"/>
</mask>
<g mask="url(#mask0)">
<rect width="128" height="128" rx="12" fill="#001C34"/>
<path d="M40.381 43.4286L-46.4762 114.286V194.286H135.238V33.1429L82.6667 85.7143L40.381 43.4286Z" fill="#268DFF"/>
<path fill-rule="evenodd" clip-rule="evenodd" d="M142.038 27.486C145.162 30.6102 145.162 35.6755 142.038 38.7997L89.4667 91.3711C86.3425 94.4953 81.2771 94.4953 78.1529 91.3711L40.9792 54.1974L-40.2761 120.485C-43.6996 123.278 -48.7391 122.766 -51.532 119.343C-54.3249 115.919 -53.8136 110.88 -50.3901 108.087L36.4671 37.2297C39.6484 34.6344 44.2778 34.8686 47.1809 37.7717L83.8098 74.4006L130.724 27.486C133.849 24.3618 138.914 24.3618 142.038 27.486Z" fill="white"/>
</g>
</svg>
