<svg width="180" height="136" viewBox="0 0 180 136" fill="none" xmlns="http://www.w3.org/2000/svg">
<path d="M6.31389 132.49C6.31389 133.433 6.31389 133.905 6.021 134.198C5.7281 134.49 5.2567 134.49 4.31389 134.49H2.57749C1.63468 134.49 1.16328 134.49 0.870383 134.198C0.57749 133.905 0.57749 133.433 0.57749 132.49V116.24C0.57749 115.297 0.57749 114.826 0.870383 114.533C1.16328 114.24 1.63468 114.24 2.57749 114.24H4.31389C5.2567 114.24 5.7281 114.24 6.021 114.533C6.31389 114.826 6.31389 115.297 6.31389 116.24V132.49ZM6.85288 108.388C6.85288 109.44 6.50639 110.274 5.8134 110.89C5.14608 111.481 4.35042 111.776 3.42644 111.776C2.50246 111.776 1.69397 111.481 1.00098 110.89C0.333661 110.274 0 109.44 0 108.388C0 107.336 0.333661 106.514 1.00098 105.924C1.69397 105.308 2.50246 105 3.42644 105C4.35042 105 5.14608 105.308 5.8134 105.924C6.50639 106.514 6.85288 107.336 6.85288 108.388Z" fill="#001C34"/>
<path d="M11.5137 110.9C11.5137 110.087 11.5137 109.68 11.7524 109.4C11.9912 109.12 12.3927 109.055 13.1957 108.926L14.9321 108.646C16.0087 108.472 16.547 108.386 16.8986 108.685C17.2501 108.985 17.2501 109.53 17.2501 110.62V112.24C17.2501 113.183 17.2501 113.654 17.543 113.947C17.8359 114.24 18.3073 114.24 19.2501 114.24H22.1415C23.0843 114.24 23.5557 114.24 23.8486 114.533C24.1415 114.826 24.1415 115.297 24.1415 116.24V117.014C24.1415 117.957 24.1415 118.428 23.8486 118.721C23.5557 119.014 23.0843 119.014 22.1415 119.014H19.2501C18.3073 119.014 17.8359 119.014 17.543 119.307C17.2501 119.6 17.2501 120.071 17.2501 121.014V126.136C17.2501 127.342 17.4554 128.305 17.8661 129.024C18.3024 129.742 19.1622 130.102 20.4455 130.102C21.0615 130.102 21.6904 130.05 22.332 129.948C23.0419 129.811 23.3968 129.743 23.6151 129.799C23.867 129.865 24.0248 129.973 24.1766 130.184C24.3081 130.367 24.3642 130.677 24.4763 131.297L24.661 132.317C24.8018 133.095 24.8722 133.484 24.6691 133.811C24.4659 134.138 24.116 134.238 23.4162 134.439C23.1651 134.512 22.9064 134.58 22.64 134.644C21.793 134.85 20.7535 134.952 19.5216 134.952C17.9559 134.952 16.6598 134.747 15.6331 134.336C14.6065 133.9 13.7852 133.31 13.1692 132.566C12.5532 131.796 12.1169 130.872 11.8602 129.794C11.6292 128.716 11.5137 127.522 11.5137 126.213V110.9Z" fill="#001C34"/>
<path d="M27.0984 124.519C27.0984 122.723 27.3679 121.157 27.9069 119.822C28.4716 118.462 29.203 117.333 30.1014 116.434C30.9997 115.536 32.0263 114.856 33.1813 114.394C34.362 113.932 35.5683 113.701 36.8002 113.701C39.6749 113.701 41.9463 114.586 43.6146 116.357C45.2829 118.103 46.1171 120.682 46.1171 124.096C46.1171 124.429 46.1042 124.801 46.0786 125.212C46.0717 125.316 46.0682 125.368 46.0599 125.417C45.9861 125.857 45.6168 126.202 45.1735 126.247C45.1237 126.252 45.0689 126.252 44.9592 126.252H35.218C34.1567 126.252 33.6261 126.252 33.3545 126.821C33.083 127.391 33.3259 127.691 33.8116 128.29C34.0423 128.574 34.3199 128.832 34.6443 129.062C35.6196 129.755 36.9286 130.102 38.5712 130.102C39.6235 130.102 40.6502 130.012 41.6512 129.832C41.6628 129.83 41.6744 129.827 41.6859 129.825C42.9557 129.569 43.5907 129.441 43.9401 129.682C44.2896 129.923 44.3843 130.496 44.5738 131.643L44.7088 132.459C44.7977 132.997 44.8422 133.267 44.7278 133.535C44.6922 133.618 44.6243 133.727 44.565 133.795C44.3746 134.016 44.1469 134.084 43.6916 134.221C43.1783 134.375 42.6008 134.503 41.9592 134.606C41.3432 134.734 40.6758 134.837 39.9572 134.914C39.2385 134.991 38.5199 135.029 37.8012 135.029C35.9789 135.029 34.3876 134.76 33.0273 134.221C31.6927 133.682 30.5762 132.951 29.6779 132.027C28.8052 131.077 28.1507 129.96 27.7144 128.677C27.3037 127.394 27.0984 126.008 27.0984 124.519ZM39.119 122.325C39.4214 122.325 39.5727 122.325 39.7426 122.261C40.0637 122.14 40.3775 121.705 40.3904 121.362C40.3972 121.181 40.366 121.087 40.3037 120.9C40.1754 120.438 39.9572 120.028 39.6492 119.668C39.3669 119.309 38.9947 119.014 38.5327 118.783C38.0964 118.552 37.5446 118.436 36.8772 118.436C36.2356 118.436 35.6838 118.552 35.2218 118.783C34.7598 118.988 34.3748 119.27 34.0668 119.63C33.7588 119.989 33.515 120.413 33.3353 120.9C33.2858 121.049 33.261 121.123 33.2512 121.244C33.2151 121.687 33.5776 122.19 34.0097 122.296C34.1271 122.325 34.2369 122.325 34.4565 122.325H39.119Z" fill="#001C34"/>
<path d="M61.6702 123.749C61.6702 121.901 61.4264 120.592 60.9387 119.822C60.4767 119.052 59.6682 118.667 58.5133 118.667C58.1539 118.667 57.7818 118.693 57.3968 118.744C57.2008 118.757 57.1028 118.764 56.9962 118.795C56.667 118.893 56.3802 119.2 56.3047 119.535C56.2803 119.643 56.2803 119.756 56.2803 119.982V132.49C56.2803 133.433 56.2803 133.905 55.9874 134.198C55.6945 134.49 55.2231 134.49 54.2803 134.49H52.5439C51.6011 134.49 51.1297 134.49 50.8368 134.198C50.5439 133.905 50.5439 133.433 50.5439 132.49V116.475C50.5439 115.728 50.5439 115.354 50.7691 115.078C50.9942 114.802 51.3448 114.73 52.0461 114.587C52.1092 114.574 52.1732 114.561 52.2379 114.548C52.9052 114.394 53.5982 114.266 54.3168 114.163C55.0612 114.035 55.8183 113.945 56.5883 113.893C57.3583 113.816 58.1154 113.778 58.8598 113.778C60.3227 113.778 61.5034 113.97 62.4017 114.355C62.7442 114.489 63.0638 114.632 63.3604 114.787C64.1101 115.177 64.4849 115.372 64.7225 115.375C64.9602 115.378 65.3173 115.204 66.0315 114.856C66.4883 114.633 66.9723 114.44 67.4836 114.278C68.5616 113.945 69.5497 113.778 70.4481 113.778C72.065 113.778 73.3868 114.009 74.4135 114.471C75.4658 114.907 76.3 115.536 76.9159 116.357C77.5319 117.179 77.9554 118.154 78.1864 119.283C78.4174 120.413 78.5329 121.67 78.5329 123.056V132.49C78.5329 133.433 78.5329 133.905 78.24 134.198C77.9471 134.49 77.4757 134.49 76.5329 134.49H74.7965C73.8537 134.49 73.3823 134.49 73.0894 134.198C72.7965 133.905 72.7965 133.433 72.7965 132.49V123.749C72.7965 121.901 72.5527 120.592 72.065 119.822C71.603 119.052 70.7945 118.667 69.6396 118.667C69.3316 118.667 68.8952 118.744 68.3306 118.898C67.8222 119.044 67.568 119.116 67.365 119.398C67.3513 119.418 67.3347 119.443 67.3225 119.463C67.1419 119.76 67.1895 120.145 67.2847 120.914C67.303 121.061 67.318 121.211 67.3296 121.362C67.3809 122.004 67.4066 122.697 67.4066 123.441V132.49C67.4066 133.433 67.4066 133.905 67.1137 134.198C66.8208 134.49 66.3494 134.49 65.4066 134.49H63.6702C62.7274 134.49 62.256 134.49 61.9631 134.198C61.6702 133.905 61.6702 133.433 61.6702 132.49V123.749Z" fill="#001C34"/>
<path d="M89.5555 130.371C90.6078 130.371 91.3521 130.268 91.7884 130.063C92.2247 129.858 92.4429 129.46 92.4429 128.87C92.4429 128.408 92.1606 128.01 91.5959 127.676C91.0313 127.317 90.1714 126.919 89.0165 126.483C88.1181 126.149 87.2968 125.802 86.5525 125.443C85.8338 125.084 85.2179 124.66 84.7045 124.173C84.1912 123.659 83.7934 123.056 83.5111 122.363C83.2287 121.67 83.0876 120.836 83.0876 119.861C83.0876 117.961 83.7934 116.46 85.205 115.356C86.6167 114.253 88.5545 113.701 91.0184 113.701C92.2504 113.701 93.431 113.816 94.5604 114.047C94.9317 114.115 95.278 114.185 95.5994 114.258C96.339 114.426 96.7087 114.51 96.9295 114.86C97.1502 115.209 97.0594 115.614 96.8778 116.425L96.7441 117.021C96.5199 118.021 96.4078 118.521 96.0568 118.743C95.7058 118.965 95.1706 118.843 94.1001 118.599C94.0867 118.596 94.0733 118.593 94.0599 118.59C93.2899 118.411 92.4172 118.321 91.4419 118.321C89.6453 118.321 88.747 118.821 88.747 119.822C88.747 120.053 88.7855 120.259 88.8625 120.438C88.9395 120.618 89.0935 120.798 89.3245 120.977C89.5555 121.131 89.8634 121.311 90.2484 121.516C90.6591 121.696 91.1724 121.901 91.7884 122.132C93.0461 122.594 94.0855 123.056 94.9069 123.518C95.7282 123.955 96.3698 124.442 96.8318 124.981C97.3195 125.494 97.6531 126.072 97.8328 126.714C98.0381 127.355 98.1408 128.1 98.1408 128.947C98.1408 130.949 97.3837 132.463 95.8693 133.49C94.3807 134.516 92.2632 135.029 89.5169 135.029C87.7203 135.029 86.2188 134.875 85.0125 134.567C84.6694 134.478 84.3565 134.393 84.0741 134.312C83.39 134.116 83.048 134.018 82.8448 133.682C82.6417 133.347 82.7193 132.971 82.8746 132.22L83.0299 131.468C83.2474 130.415 83.3562 129.889 83.7222 129.662C84.0882 129.436 84.6484 129.584 85.7689 129.881C86.0158 129.946 86.2641 130.007 86.514 130.063C87.5407 130.268 88.5545 130.371 89.5555 130.371Z" fill="#001C34"/>
<path d="M101.465 124.365C101.465 122.902 101.696 121.529 102.158 120.246C102.646 118.937 103.339 117.807 104.237 116.858C105.136 115.882 106.226 115.112 107.51 114.548C108.793 113.983 110.256 113.701 111.899 113.701C112.977 113.701 113.965 113.804 114.863 114.009C115.196 114.076 115.526 114.155 115.853 114.246C116.589 114.452 116.957 114.555 117.161 114.91C117.365 115.265 117.258 115.672 117.046 116.488L116.755 117.606C116.583 118.266 116.497 118.596 116.315 118.784C116.182 118.922 116.052 119 115.868 119.052C115.616 119.124 115.25 119.036 114.517 118.86C113.875 118.706 113.156 118.629 112.361 118.629C110.667 118.629 109.396 119.155 108.549 120.207C107.728 121.26 107.317 122.646 107.317 124.365C107.317 126.187 107.702 127.599 108.472 128.6C109.268 129.601 110.641 130.102 112.592 130.102C113.285 130.102 114.029 130.037 114.825 129.909C115.881 129.739 116.41 129.653 116.701 129.803C116.802 129.854 116.858 129.894 116.939 129.973C117.175 130.2 117.252 130.648 117.407 131.545L117.558 132.427C117.689 133.188 117.755 133.569 117.545 133.896C117.334 134.223 116.997 134.312 116.324 134.489C116.012 134.572 115.679 134.649 115.325 134.721C114.324 134.927 113.22 135.029 112.014 135.029C110.166 135.029 108.575 134.76 107.24 134.221C105.906 133.656 104.802 132.899 103.929 131.95C103.082 131 102.453 129.883 102.043 128.6C101.658 127.291 101.465 125.879 101.465 124.365Z" fill="#001C34"/>
<path d="M139.642 124.327C139.642 125.918 139.411 127.381 138.949 128.716C138.487 130.025 137.819 131.154 136.947 132.104C136.074 133.028 135.022 133.746 133.79 134.259C132.583 134.773 131.223 135.029 129.709 135.029C128.22 135.029 126.86 134.773 125.628 134.259C124.422 133.746 123.382 133.028 122.509 132.104C121.637 131.154 120.957 130.025 120.469 128.716C119.981 127.381 119.737 125.918 119.737 124.327C119.737 122.735 119.981 121.285 120.469 119.976C120.982 118.667 121.675 117.551 122.548 116.627C123.446 115.703 124.499 114.984 125.705 114.471C126.937 113.958 128.271 113.701 129.709 113.701C131.172 113.701 132.506 113.958 133.713 114.471C134.945 114.984 135.997 115.703 136.87 116.627C137.742 117.551 138.422 118.667 138.91 119.976C139.398 121.285 139.642 122.735 139.642 124.327ZM133.79 124.327C133.79 122.556 133.43 121.17 132.712 120.169C132.019 119.142 131.018 118.629 129.709 118.629C128.4 118.629 127.386 119.142 126.667 120.169C125.949 121.17 125.589 122.556 125.589 124.327C125.589 126.098 125.949 127.509 126.667 128.562C127.386 129.588 128.4 130.102 129.709 130.102C131.018 130.102 132.019 129.588 132.712 128.562C133.43 127.509 133.79 126.098 133.79 124.327Z" fill="#001C34"/>
<path d="M161.371 132.294C161.371 133.026 161.371 133.392 161.148 133.667C160.925 133.942 160.588 134.014 159.912 134.157C159.229 134.302 158.458 134.439 157.599 134.567C156.059 134.824 154.442 134.952 152.748 134.952C151.028 134.952 149.591 134.721 148.436 134.259C147.306 133.797 146.408 133.156 145.741 132.335C145.073 131.488 144.599 130.487 144.316 129.332C144.034 128.177 143.893 126.906 143.893 125.52V116.24C143.893 115.297 143.893 114.826 144.186 114.533C144.479 114.24 144.95 114.24 145.893 114.24H147.629C148.572 114.24 149.043 114.24 149.336 114.533C149.629 114.826 149.629 115.297 149.629 116.24V124.827C149.629 126.675 149.873 128.01 150.361 128.831C150.848 129.652 151.759 130.063 153.094 130.063C153.505 130.063 153.941 130.05 154.403 130.025C154.737 129.988 154.903 129.969 155.048 129.903C155.298 129.79 155.501 129.564 155.586 129.303C155.635 129.151 155.635 128.977 155.635 128.629V116.24C155.635 115.297 155.635 114.826 155.928 114.533C156.221 114.24 156.692 114.24 157.635 114.24H159.371C160.314 114.24 160.786 114.24 161.079 114.533C161.371 114.826 161.371 115.297 161.371 116.24V132.294Z" fill="#001C34"/>
<path d="M166.564 110.9C166.564 110.087 166.564 109.68 166.802 109.4C167.041 109.12 167.443 109.055 168.246 108.926L169.982 108.646C171.059 108.472 171.597 108.386 171.949 108.685C172.3 108.985 172.3 109.53 172.3 110.62V112.24C172.3 113.183 172.3 113.654 172.593 113.947C172.886 114.24 173.357 114.24 174.3 114.24H177.191C178.134 114.24 178.606 114.24 178.899 114.533C179.192 114.826 179.192 115.297 179.192 116.24V117.014C179.192 117.957 179.192 118.428 178.899 118.721C178.606 119.014 178.134 119.014 177.192 119.014H174.3C173.357 119.014 172.886 119.014 172.593 119.307C172.3 119.6 172.3 120.071 172.3 121.014V126.136C172.3 127.342 172.505 128.305 172.916 129.024C173.352 129.742 174.212 130.102 175.496 130.102C176.112 130.102 176.74 130.05 177.382 129.948C178.092 129.811 178.447 129.743 178.665 129.799C178.917 129.865 179.075 129.973 179.227 130.184C179.358 130.367 179.414 130.677 179.526 131.297L179.711 132.317C179.852 133.095 179.922 133.484 179.719 133.811C179.516 134.138 179.166 134.238 178.466 134.439C178.215 134.512 177.956 134.58 177.69 134.644C176.843 134.85 175.804 134.952 174.572 134.952C173.006 134.952 171.71 134.747 170.683 134.336C169.657 133.9 168.835 133.31 168.219 132.566C167.603 131.796 167.167 130.872 166.91 129.794C166.679 128.716 166.564 127.522 166.564 126.213V110.9Z" fill="#001C34"/>
<mask id="mask0" mask-type="alpha" maskUnits="userSpaceOnUse" x="46" y="0" width="88" height="88">
<circle cx="90" cy="44" r="44" fill="#001C34"/>
</mask>
<g mask="url(#mask0)">
<rect x="46" y="-2.09523" width="90.0952" height="90.0952" fill="#001C34"/>
<rect x="54.5789" y="104.238" width="90.0952" height="90.0952" rx="6" transform="rotate(-45 54.5789 104.238)" fill="#268DFF"/>
<rect x="54.5789" y="104.238" width="90.0952" height="90.0952" rx="6" transform="rotate(-45 54.5789 104.238)" fill="url(#paint0_linear)" fill-opacity="0.4" style="mix-blend-mode:soft-light"/>
<rect x="15.2931" y="93.2381" width="90.0952" height="90.0952" rx="6" transform="rotate(-45 15.2931 93.2381)" fill="#268DFF"/>
<rect x="15.2931" y="93.2381" width="90.0952" height="90.0952" rx="6" transform="rotate(-45 15.2931 93.2381)" fill="url(#paint1_linear)" fill-opacity="0.4" style="mix-blend-mode:soft-light"/>
</g>
<defs>
<linearGradient id="paint0_linear" x1="99.6265" y1="104.238" x2="99.6265" y2="194.333" gradientUnits="userSpaceOnUse">
<stop stop-color="white"/>
<stop offset="0.5625" stop-color="white" stop-opacity="0"/>
</linearGradient>
<linearGradient id="paint1_linear" x1="60.3407" y1="93.2381" x2="60.3407" y2="183.333" gradientUnits="userSpaceOnUse">
<stop stop-color="white"/>
<stop offset="0.5625" stop-color="white" stop-opacity="0"/>
</linearGradient>
</defs>
</svg>
